<?xml version="1.0" encoding="UTF-8" standalone="no"?>
<!-- Created with Inkscape (http://www.inkscape.org/) -->

<svg
   version="1.1"
   id="svg2"
   width="653.32001"
   height="712.37335"
   viewBox="0 0 653.32001 712.37335"
   sodipodi:docname="CRICK_Brandmark_01_CMYK.eps"
   xmlns:inkscape="http://www.inkscape.org/namespaces/inkscape"
   xmlns:sodipodi="http://sodipodi.sourceforge.net/DTD/sodipodi-0.dtd"
   xmlns="http://www.w3.org/2000/svg"
   xmlns:svg="http://www.w3.org/2000/svg">
  <defs
     id="defs6" />
  <sodipodi:namedview
     id="namedview4"
     pagecolor="#ffffff"
     bordercolor="#000000"
     borderopacity="0.25"
     inkscape:showpageshadow="2"
     inkscape:pageopacity="0.0"
     inkscape:pagecheckerboard="0"
     inkscape:deskcolor="#d1d1d1" />
  <g
     id="g8"
     inkscape:groupmode="layer"
     inkscape:label="ink_ext_XXXXXX"
     transform="matrix(1.3333333,0,0,-1.3333333,0,712.37333)">
    <g
       id="g10"
       transform="scale(0.1)">
      <path
         d="m 4218.19,1651.08 -0.85,0.26 v 556.37 l 91.41,-74.37 -90.56,-482.26 m 148.38,790.19 -149.23,220.75 v 1902.54 l 593.83,244.55 -444.6,-2367.84 m -4237.273,439.63 -0.234,0.07 0.558,0.23 -0.324,-0.3"
         style="fill:#c091cf;fill-opacity:1;fill-rule:nonzero;stroke:none"
         id="path12" />
      <path
         d="M 845.996,208.582 631.691,1007.31 1019.9,1076.88 845.996,208.582 M 428.004,1766.5 129.063,2880.68 l 0.234,0.22 736.73,-221.59 L 428.004,1766.5 M 129.621,2881.2 1663.24,4289 l -0.3,-1.5 -0.11,-0.15 -0.43,-0.1 0.17,-0.28 -0.17,-0.24 0.33,-0.27 -1.1,-5.5 L 1188.91,3317.42 129.621,2881.2"
         style="fill:#a3d9f5;fill-opacity:1;fill-rule:nonzero;stroke:none"
         id="path14" />
      <path
         d="m 866.027,2659.31 -736.73,221.59 0.324,0.3 1059.289,436.22 -322.883,-658.11"
         style="fill:#8285cb;fill-opacity:1;fill-rule:nonzero;stroke:none"
         id="path16" />
      <path
         d="m 4899.88,1652.32 -591.13,481.02 57.82,307.93 533.31,-788.95 M 1684.62,4268.66 v 0 l -18.77,19.4 -0.83,-0.2 -1.15,-2.32 1.15,2.32 -2.11,-0.49 0.03,0.13 742.28,1055.25 513.94,-760.29 -1253.31,-294.4 18.77,-19.4 m -19.26,19.91 -0.34,-0.71 0.83,0.2 -0.49,0.51"
         style="fill:#addf8e;fill-opacity:1;fill-rule:nonzero;stroke:none"
         id="path18" />
      <path
         d="m 4308.75,2133.34 -91.41,74.37 v 454.31 l 149.23,-220.75 -57.82,-307.93"
         style="fill:#898b7f;fill-opacity:1;fill-rule:nonzero;stroke:none"
         id="path20" />
      <path
         d="m 1662.83,4287.35 0.11,0.15 -0.03,-0.13 -0.08,-0.02"
         style="fill:#70c594;fill-opacity:1;fill-rule:nonzero;stroke:none"
         id="path22" />
      <path
         d="m 1663,4286.25 -0.27,0.21 0.04,0.18 0.23,-0.39"
         style="fill:#addf8e;fill-opacity:1;fill-rule:nonzero;stroke:none"
         id="path24" />
      <path
         d="m 1662.73,4286.46 -0.33,0.27 0.17,0.24 0.2,-0.33 -0.04,-0.18"
         style="fill:#70c594;fill-opacity:1;fill-rule:nonzero;stroke:none"
         id="path26" />
      <path
         d="m 1662.4,4287.25 1.27,-2.13 1.35,2.74 -2.62,-0.61"
         style="fill:#fee81a;fill-opacity:1;fill-rule:nonzero;stroke:none"
         id="path28" />
      <path
         d="M 4217.34,0 V 1649.85 L 3328.99,1490.66 4217.34,0 M 1665.85,4288.06 4217.34,1649.85 V 4887.41 L 1665.85,4288.06"
         style="fill:#fee81a;fill-opacity:1;fill-rule:nonzero;stroke:none"
         id="path30" />
      <path
         d="m 1665.02,4287.86 0.34,0.71 0.49,-0.51 -0.83,-0.2"
         style="fill:#4f7781;fill-opacity:1;fill-rule:nonzero;stroke:none"
         id="path32" />
      <path
         d="M 0,894.109 428.004,1766.5 631.691,1007.31 0,894.109 m 1019.9,182.771 290.19,1448.87 1708.24,-513.78 310.66,-521.31 -2309.09,-413.78 m 473.9,2366.1 167.83,837.98 2.04,4.16 369.5,-620.02 -539.37,-222.12"
         style="fill:#6778c4;fill-opacity:1;fill-rule:nonzero;stroke:none"
         id="path34" />
      <path
         d="m 3018.33,2011.97 -1708.24,513.78 183.71,917.23 539.37,222.12 985.16,-1653.13"
         style="fill:#5955af;fill-opacity:1;fill-rule:nonzero;stroke:none"
         id="path36" />
      <path
         d="M 631.691,1007.31 428.004,1766.5 866.027,2659.31 1310.09,2525.75 1019.9,1076.88 631.691,1007.31 m 557.219,2310.11 472.72,963.54 -167.83,-837.98 -304.89,-125.56"
         style="fill:#4a73c1;fill-opacity:1;fill-rule:nonzero;stroke:none"
         id="path38" />
      <path
         d="m 1310.09,2525.75 -444.063,133.56 322.883,658.11 304.89,125.56 -183.71,-917.23"
         style="fill:#4554ae;fill-opacity:1;fill-rule:nonzero;stroke:none"
         id="path40" />
      <path
         d="m 1665.02,4287.86 -1.35,-2.74 1665.32,-2794.46 888.35,159.19 -2551.49,2638.21 -0.83,-0.2"
         style="fill:#fee81a;fill-opacity:1;fill-rule:nonzero;stroke:none"
         id="path42" />
      <path
         d="m 3328.99,1490.66 v 0 l -310.66,521.31 -1354.66,2273.15 1.35,2.74 0.83,0.2 2551.49,-2638.21 -888.35,-159.19"
         style="fill:#c8992c;fill-opacity:1;fill-rule:nonzero;stroke:none"
         id="path44" />
      <path
         d="M 4217.34,1648.35 H 1662.4 V 4288.57 H 4217.34 V 1648.35"
         style="fill:#151118;fill-opacity:1;fill-rule:nonzero;stroke:none"
         id="path46" />
      <path
         d="m 2643.62,2918.68 v -291.56 h 55.89 v 178.89 l 113.26,-178.89 h 49.95 v 291.56 h -55.95 v -178.57 l -113.26,178.57 h -49.89"
         style="fill:#ffffff;fill-opacity:1;fill-rule:nonzero;stroke:none"
         id="path48" />
      <path
         d="m 3164.31,2918.68 v -291.56 h 55.99 v 291.56 h -55.99"
         style="fill:#ffffff;fill-opacity:1;fill-rule:nonzero;stroke:none"
         id="path50" />
      <path
         d="m 3253.15,2663.14 c 28.17,-29.04 61.05,-38.5 104.53,-38.5 59.69,0 105.97,31.9 105.97,88.47 0,25.81 -6.77,47.13 -22.17,61.79 -11.99,11.47 -28.5,18.88 -54.5,22.54 l -33.82,4.93 c -11.58,1.66 -20.89,6.17 -26.4,11.54 -6.12,5.73 -8.46,13.41 -8.46,20.86 0,20.12 14.35,36.89 44.13,36.89 18.96,0 40.49,-2.52 58.73,-20.13 l 35.22,35.66 c -24.39,24.16 -53.01,34 -92.36,34 -61.83,0 -99.61,-36.47 -99.61,-88.52 0,-24.56 6.85,-43.39 20.54,-57.34 12.93,-12.67 30.8,-20.48 55.32,-24.14 l 34.56,-4.88 c 13.3,-2.08 19.75,-4.93 25.38,-10.23 5.97,-5.8 8.79,-14.4 8.79,-24.61 0,-23.35 -17.67,-36.05 -50.58,-36.05 -26.53,0 -51.12,6.18 -69.1,24.56 l -36.17,-36.84"
         style="fill:#ffffff;fill-opacity:1;fill-rule:nonzero;stroke:none"
         id="path52" />
      <path
         d="m 2908.54,2772.97 c 0,-50.43 -0.83,-86.93 28.14,-116.43 20.14,-20.4 45.72,-31.9 77.06,-31.9 53.1,0 95.3,31.12 105.29,92.15 h -56.62 c -5.63,-23.32 -20.09,-41.37 -48.2,-41.37 -15.21,0 -27.72,5.77 -35.68,15.2 -10.84,12.22 -14.11,26.17 -14.11,82.35 0,56.05 3.27,69.94 14.11,82.25 7.96,9.42 20.47,15.2 35.68,15.2 28.11,0 42.57,-18.05 48.2,-41.4 h 56.62 c -9.99,61.1 -51.75,92.17 -105.29,92.17 -31.34,0 -56.92,-11.43 -77.06,-32 -28.97,-29.43 -28.14,-65.95 -28.14,-116.22"
         style="fill:#ffffff;fill-opacity:1;fill-rule:nonzero;stroke:none"
         id="path54" />
      <path
         d="m 1889.47,2918.68 v -291.56 h 55.92 v 118.35 h 112.94 v 50.83 h -112.94 v 71.64 h 132.54 v 50.74 h -188.46"
         style="fill:#ffffff;fill-opacity:1;fill-rule:nonzero;stroke:none"
         id="path56" />
      <path
         d="m 2222.03,2790.91 h -52.56 v 77.03 h 52.56 c 24.57,0 40.68,-16.03 40.68,-38.49 0,-22.5 -16.11,-38.54 -40.68,-38.54 z m 49.9,-38.07 c 27.82,10.27 52.19,35.6 52.19,76.61 0,48.72 -34.51,89.23 -92.81,89.23 h -112.06 v -291.56 h 55.89 v 116.29 h 40.04 l 55.97,-116.29 h 64.59 l -63.81,125.72"
         style="fill:#ffffff;fill-opacity:1;fill-rule:nonzero;stroke:none"
         id="path58" />
      <path
         d="m 2446.37,2726.61 36.22,106.06 34.89,-106.06 z m 56.67,192.07 h -43.8 l -103.93,-291.56 h 58.24 l 17.25,51.56 h 101.57 l 16.78,-51.56 h 58.31 l -104.42,291.56"
         style="fill:#ffffff;fill-opacity:1;fill-rule:nonzero;stroke:none"
         id="path60" />
      <path
         d="m 1885.39,2400.69 c 0,-50.39 -0.72,-86.85 28.22,-116.34 20.08,-20.48 45.86,-31.93 77.03,-31.93 53.05,0 95.28,31.07 105.25,92.19 h -56.58 c -5.53,-23.34 -20.08,-41.43 -48.16,-41.43 -15.31,0 -27.71,5.78 -35.79,15.16 -10.85,12.34 -14.06,26.27 -14.06,82.35 0,56.13 3.21,70.01 14.06,82.32 8.08,9.4 20.48,15.16 35.79,15.16 28.08,0 42.63,-18 48.16,-41.35 h 56.58 c -9.97,61.02 -51.68,92.15 -105.25,92.15 -31.17,0 -56.95,-11.51 -77.03,-31.95 -28.94,-29.48 -28.22,-65.9 -28.22,-116.33"
         style="fill:#ffffff;fill-opacity:1;fill-rule:nonzero;stroke:none"
         id="path62" />
      <path
         d="m 1885.39,2400.69 v 0 c 0,-2.39 0,-4.76 0,-7.09 0,-46.75 0.65,-81.16 28.22,-109.25 20.08,-20.48 45.86,-31.93 77.03,-31.93 53.05,0 95.28,31.07 105.25,92.19 h -56.58 c -5.53,-23.34 -20.08,-41.43 -48.16,-41.43 -15.31,0 -27.71,5.78 -35.79,15.16 -10.85,12.34 -14.06,26.27 -14.06,82.35 0,56.13 3.21,70.01 14.06,82.32 8.08,9.4 20.48,15.16 35.79,15.16 28.08,0 42.63,-18 48.16,-41.35 h 56.58 c -9.97,61.02 -51.68,92.15 -105.25,92.15 -31.17,0 -56.95,-11.51 -77.03,-31.95 -27.57,-28.08 -28.22,-62.45 -28.22,-109.22 0,-2.34 0,-4.71 0,-7.11 0,2.4 0,4.77 0,7.11 0,46.77 0.65,81.14 28.22,109.22 20.08,20.44 45.86,31.95 77.03,31.95 53.57,0 95.28,-31.13 105.25,-92.15 h -56.58 c -5.53,23.35 -20.08,41.35 -48.16,41.35 -15.31,0 -27.71,-5.76 -35.79,-15.16 -10.85,-12.31 -14.06,-26.19 -14.06,-82.32 0,-56.08 3.21,-70.01 14.06,-82.35 8.08,-9.38 20.48,-15.16 35.79,-15.16 28.08,0 42.63,18.09 48.16,41.43 h 56.58 c -9.97,-61.12 -52.2,-92.19 -105.25,-92.19 -31.17,0 -56.95,11.45 -77.03,31.93 -27.57,28.09 -28.22,62.5 -28.22,109.25 0,2.33 0,4.7 0,7.09"
         style="fill:#ffffff;fill-opacity:1;fill-rule:nonzero;stroke:none"
         id="path64" />
      <path
         d="m 2249.84,2418.41 h -52.67 v 77.05 h 52.67 c 24.5,0 40.53,-15.99 40.53,-38.48 0,-22.56 -16.03,-38.57 -40.53,-38.57 z m 44.09,-37.78 c 27.79,10.24 52.24,35.57 52.24,76.6 0,48.68 -34.49,89.35 -92.73,89.35 h -112.06 v -291.77 h 55.79 v 116.3 h 40.19 l 55.8,-116.3 h 64.73 l -63.96,125.82"
         style="fill:#ffffff;fill-opacity:1;fill-rule:nonzero;stroke:none"
         id="path66" />
      <path
         d="m 2249.84,2418.41 v 0 h -52.67 v 77.05 h 52.67 c 24.5,0 40.53,-15.99 40.53,-38.48 0,-22.56 -16.03,-38.57 -40.53,-38.57 24.5,0 40.53,16.02 40.53,38.57 0,22.49 -16.03,38.48 -40.53,38.48 h -52.67 v -77.05 z m 44.09,-37.78 v 0 c 27.79,10.24 52.24,35.57 52.24,76.6 0,48.68 -34.49,89.35 -92.73,89.35 h -112.06 v -291.77 h 55.79 v 116.3 h 40.19 l 55.8,-116.3 h 64.73 l -63.96,125.82 63.96,-125.82 h -64.73 l -55.8,116.3 h -40.19 v -116.3 h -55.79 v 291.77 h 112.06 c 58.24,0 92.73,-40.67 92.73,-89.35 0,-41.03 -24.45,-66.36 -52.24,-76.6"
         style="fill:#ffffff;fill-opacity:1;fill-rule:nonzero;stroke:none"
         id="path68" />
      <path
         d="m 2404.45,2546.58 v -291.77 h 55.69 v 291.77 h -55.69"
         style="fill:#ffffff;fill-opacity:1;fill-rule:nonzero;stroke:none"
         id="path70" />
      <path
         d="m 2404.45,2546.58 v 0 -291.77 h 55.69 v 291.77 h -55.69 55.69 v -291.77 h -55.69 v 291.77"
         style="fill:#ffffff;fill-opacity:1;fill-rule:nonzero;stroke:none"
         id="path72" />
      <path
         d="m 2509.06,2400.69 c 0,-50.39 -0.71,-86.85 28.18,-116.34 20.14,-20.48 45.78,-31.93 77.11,-31.93 53.08,0 95.17,31.07 105.35,92.19 h -56.75 c -5.67,-23.34 -19.98,-41.43 -48.22,-41.43 -15.21,0 -27.62,5.78 -35.74,15.16 -10.85,12.34 -14.01,26.27 -14.01,82.35 0,56.13 3.16,70.01 14.01,82.32 8.12,9.4 20.53,15.16 35.74,15.16 28.24,0 42.55,-18 48.22,-41.35 h 56.75 c -10.18,61.02 -51.82,92.15 -105.35,92.15 -31.33,0 -56.97,-11.51 -77.11,-31.95 -28.89,-29.48 -28.18,-65.9 -28.18,-116.33"
         style="fill:#ffffff;fill-opacity:1;fill-rule:nonzero;stroke:none"
         id="path74" />
      <path
         d="m 2509.06,2400.69 v 0 c 0,-2.37 0,-4.7 0,-7.01 0,-46.79 0.65,-81.23 28.18,-109.33 20.14,-20.48 45.78,-31.93 77.11,-31.93 53.08,0 95.17,31.07 105.35,92.19 h -56.75 c -5.67,-23.34 -19.98,-41.43 -48.22,-41.43 -15.21,0 -27.62,5.78 -35.74,15.16 -10.85,12.34 -14.01,26.27 -14.01,82.35 0,56.13 3.16,70.01 14.01,82.32 8.12,9.4 20.53,15.16 35.74,15.16 28.24,0 42.55,-18 48.22,-41.35 h 56.75 c -10.18,61.02 -51.82,92.15 -105.35,92.15 -31.33,0 -56.97,-11.51 -77.11,-31.95 -27.53,-28.09 -28.18,-62.49 -28.18,-109.3 0,-2.31 0,-4.65 0,-7.03 0,2.38 0,4.72 0,7.03 0,46.82 0.65,81.21 28.18,109.3 20.14,20.44 45.78,31.95 77.11,31.95 53.53,0 95.17,-31.13 105.35,-92.15 h -56.75 c -5.67,23.35 -19.98,41.35 -48.22,41.35 -15.21,0 -27.62,-5.76 -35.74,-15.16 -10.85,-12.31 -14.01,-26.19 -14.01,-82.32 0,-56.08 3.16,-70.01 14.01,-82.35 8.12,-9.38 20.53,-15.16 35.74,-15.16 28.24,0 42.55,18.09 48.22,41.43 h 56.75 c -10.18,-61.12 -52.27,-92.19 -105.35,-92.19 -31.33,0 -56.97,11.45 -77.11,31.93 -27.53,28.1 -28.18,62.54 -28.18,109.33 0,2.31 0,4.64 0,7.01"
         style="fill:#ffffff;fill-opacity:1;fill-rule:nonzero;stroke:none"
         id="path76" />
      <path
         d="m 2772.17,2546.58 v -291.77 h 55.7 v 87.75 l 37.09,44.99 73.49,-132.74 h 65.19 l -101.64,175.76 94.77,116.01 h -67.92 l -100.98,-127.11 v 127.11 h -55.7"
         style="fill:#ffffff;fill-opacity:1;fill-rule:nonzero;stroke:none"
         id="path78" />
      <path
         d="m 2772.17,2546.58 v 0 -291.77 h 55.7 v 87.75 l 37.09,44.99 73.49,-132.74 h 65.19 l -101.64,175.76 94.77,116.01 h -67.92 l -100.98,-127.11 v 127.11 h -55.7 55.7 v -127.11 l 100.98,127.11 h 67.92 L 2902,2430.57 3003.64,2254.81 h -65.19 l -73.49,132.74 -37.09,-44.99 v -87.75 h -55.7 v 291.77"
         style="fill:#ffffff;fill-opacity:1;fill-rule:nonzero;stroke:none"
         id="path80" />
      <path
         d="m 1863.91,3257.86 h 82.81 v -262.67 h 40.56 v 262.67 h 82.71 v 37.75 h -206.08 v -37.75"
         style="fill:#ffffff;fill-opacity:1;fill-rule:nonzero;stroke:none"
         id="path82" />
      <path
         d="m 2284.02,3165.46 h -125.89 v 130.09 h -40.5 v -300.3 h 40.5 v 132.58 h 125.89 v -132.58 h 40.45 v 300.3 h -40.45 v -130.09"
         style="fill:#ffffff;fill-opacity:1;fill-rule:nonzero;stroke:none"
         id="path84" />
      <path
         d="m 2568.87,3257.92 v 37.63 h -187.33 v -300.3 h 187.33 v 37.67 h -146.94 v 94.91 h 125.27 v 37.63 h -125.27 v 92.46 h 146.94"
         style="fill:#ffffff;fill-opacity:1;fill-rule:nonzero;stroke:none"
         id="path86" />
      <path
         d="m 1928.77,1877.91 h -39.26 v 291.02 h 39.26 v -291.02"
         style="fill:#ffffff;fill-opacity:1;fill-rule:nonzero;stroke:none"
         id="path88" />
      <path
         d="m 2201.7,1877.91 h -35.32 l -139.78,214.28 v -214.28 h -39.22 v 291.02 h 35.47 l 139.74,-213.68 v 213.68 h 39.11 v -291.02"
         style="fill:#ffffff;fill-opacity:1;fill-rule:nonzero;stroke:none"
         id="path90" />
      <path
         d="m 2346.58,1875.45 c -42.85,0 -71.37,11.19 -98.44,38.61 l -3.34,3.39 27.04,27.37 3.41,-3.47 c 21.18,-21.42 40.71,-29.38 72.13,-29.38 37.91,0 60.5,17.72 60.5,47.4 0,13.69 -4.11,24.92 -11.53,31.61 -7.94,6.86 -13.91,9.06 -33.73,12.2 l -32.39,5.17 c -22.75,3.73 -40.72,11.26 -53.39,22.45 -15.08,13.6 -22.7,32.51 -22.7,56.28 0,51.11 36.74,84.13 93.59,84.13 36.12,0 60.92,-9.29 85.73,-32.1 l 3.67,-3.38 -25.84,-26.12 -3.41,3.14 c -17.57,16.2 -35.34,22.81 -61.3,22.81 -33.55,0 -53.57,-17.71 -53.57,-47.37 0,-12.85 3.59,-22.56 10.7,-28.86 7.54,-6.52 20.68,-11.86 35.14,-14.25 l 30.25,-4.75 c 25.8,-3.85 40.16,-9.51 52.93,-20.86 16.38,-14.06 25.07,-34.6 25.07,-59.32 0,-51.45 -39.44,-84.7 -100.52,-84.7"
         style="fill:#ffffff;fill-opacity:1;fill-rule:nonzero;stroke:none"
         id="path92" />
      <path
         d="m 2590.92,1877.91 h -39.18 v 254.45 h -80.26 v 36.57 h 199.66 v -36.57 h -80.22 v -254.45"
         style="fill:#ffffff;fill-opacity:1;fill-rule:nonzero;stroke:none"
         id="path94" />
      <path
         d="m 2751.33,1877.91 h -39.1 v 291.02 h 39.1 v -291.02"
         style="fill:#ffffff;fill-opacity:1;fill-rule:nonzero;stroke:none"
         id="path96" />
      <path
         d="m 2911.99,1877.91 h -39.21 v 254.45 h -80.2 v 36.57 h 199.64 v -36.57 h -80.23 v -254.45"
         style="fill:#ffffff;fill-opacity:1;fill-rule:nonzero;stroke:none"
         id="path98" />
      <path
         d="m 3126.26,1875.45 c -58.79,0 -101.45,42.1 -101.45,100.1 v 193.38 h 39.23 v -191.02 c 0,-40.06 24.42,-65.94 62.22,-65.94 38,0 62.55,25.88 62.55,65.94 v 191.02 H 3228 v -193.38 c 0,-58 -42.79,-100.1 -101.74,-100.1"
         style="fill:#ffffff;fill-opacity:1;fill-rule:nonzero;stroke:none"
         id="path100" />
      <path
         d="m 3380.59,1877.91 h -39.12 v 254.45 h -80.27 v 36.57 h 199.72 v -36.57 h -80.33 v -254.45"
         style="fill:#ffffff;fill-opacity:1;fill-rule:nonzero;stroke:none"
         id="path102" />
      <path
         d="m 3675.21,1877.91 h -181.77 v 291.02 h 181.77 v -36.57 H 3532.7 v -89.61 h 121.5 v -36.46 h -121.5 v -91.95 h 142.51 v -36.43"
         style="fill:#ffffff;fill-opacity:1;fill-rule:nonzero;stroke:none"
         id="path104" />
    </g>
  </g>
</svg>
