<?xml version="1.0" encoding="UTF-8" standalone="no"?>
<svg
   xmlns:dc="http://purl.org/dc/elements/1.1/"
   xmlns:cc="http://creativecommons.org/ns#"
   xmlns:rdf="http://www.w3.org/1999/02/22-rdf-syntax-ns#"
   xmlns:svg="http://www.w3.org/2000/svg"
   xmlns="http://www.w3.org/2000/svg"
   xmlns:sodipodi="http://sodipodi.sourceforge.net/DTD/sodipodi-0.dtd"
   xmlns:inkscape="http://www.inkscape.org/namespaces/inkscape"
   version="1.1"
   id="svg2"
   xml:space="preserve"
   width="567.76001"
   height="579.1333"
   viewBox="0 0 567.76001 579.1333"
   sodipodi:docname="CRICK_Logotype_white_CMYK.eps"><metadata
     id="metadata8"><rdf:RDF><cc:Work
         rdf:about=""><dc:format>image/svg+xml</dc:format><dc:type
           rdf:resource="http://purl.org/dc/dcmitype/StillImage" /></cc:Work></rdf:RDF></metadata><defs
     id="defs6" /><sodipodi:namedview
     pagecolor="#ffffff"
     bordercolor="#666666"
     borderopacity="1"
     objecttolerance="10"
     gridtolerance="10"
     guidetolerance="10"
     inkscape:pageopacity="0"
     inkscape:pageshadow="2"
     inkscape:window-width="640"
     inkscape:window-height="480"
     id="namedview4" /><g
     id="g10"
     inkscape:groupmode="layer"
     inkscape:label="ink_ext_XXXXXX"
     transform="matrix(1.3333333,0,0,-1.3333333,0,579.13333)"><g
       id="g12"
       transform="scale(0.1)"><path
         d="m 851.648,3490.54 1.274,-2.13 1.34,2.74 z"
         style="fill:#fee81a;fill-opacity:1;fill-rule:nonzero;stroke:none"
         id="path14" /><path
         d="m 854.262,3491.15 0.347,0.71 0.493,-0.51 -0.84,-0.2"
         style="fill:#6778c4;fill-opacity:1;fill-rule:nonzero;stroke:none"
         id="path16" /><path
         d="M 3406.59,851.641 H 851.648 V 3491.86 H 3406.59 V 851.641"
         style="fill:#ffffff;fill-opacity:1;fill-rule:nonzero;stroke:none"
         id="path18" /><path
         d="m 1832.87,2121.97 v -291.56 h 55.89 v 178.89 l 113.26,-178.89 h 49.95 v 291.56 h -55.95 V 1943.4 l -113.27,178.57 h -49.88"
         style="fill:#151118;fill-opacity:1;fill-rule:nonzero;stroke:none"
         id="path20" /><path
         d="m 2353.55,2121.97 v -291.56 h 56 v 291.56 h -56"
         style="fill:#151118;fill-opacity:1;fill-rule:nonzero;stroke:none"
         id="path22" /><path
         d="m 2442.4,1866.42 c 28.17,-29.03 61.05,-38.49 104.52,-38.49 59.7,0 105.98,31.9 105.98,88.47 0,25.81 -6.77,47.12 -22.17,61.79 -11.99,11.47 -28.5,18.88 -54.5,22.53 l -33.82,4.94 c -11.58,1.66 -20.9,6.17 -26.4,11.55 -6.12,5.72 -8.46,13.39 -8.46,20.85 0,20.12 14.34,36.88 44.13,36.88 18.95,0 40.49,-2.52 58.73,-20.12 l 35.22,35.66 c -24.39,24.16 -53.01,33.99 -92.36,33.99 -61.83,0 -99.61,-36.46 -99.61,-88.51 0,-24.56 6.85,-43.38 20.54,-57.34 12.93,-12.67 30.8,-20.48 55.32,-24.14 l 34.56,-4.88 c 13.3,-2.08 19.75,-4.93 25.37,-10.24 5.98,-5.79 8.8,-14.39 8.8,-24.61 0,-23.34 -17.67,-36.04 -50.58,-36.04 -26.53,0 -51.12,6.18 -69.11,24.56 l -36.16,-36.85"
         style="fill:#151118;fill-opacity:1;fill-rule:nonzero;stroke:none"
         id="path24" /><path
         d="m 2097.79,1976.26 c 0,-50.43 -0.84,-86.93 28.14,-116.43 20.13,-20.4 45.72,-31.9 77.06,-31.9 53.09,0 95.3,31.12 105.29,92.15 h -56.62 c -5.63,-23.32 -20.09,-41.37 -48.2,-41.37 -15.21,0 -27.72,5.77 -35.69,15.2 -10.84,12.22 -14.1,26.17 -14.1,82.35 0,56.05 3.26,69.94 14.1,82.24 7.97,9.43 20.48,15.21 35.69,15.21 28.11,0 42.57,-18.05 48.2,-41.4 h 56.62 c -9.99,61.11 -51.76,92.16 -105.29,92.16 -31.34,0 -56.93,-11.42 -77.06,-31.99 -28.98,-29.43 -28.14,-65.95 -28.14,-116.22"
         style="fill:#151118;fill-opacity:1;fill-rule:nonzero;stroke:none"
         id="path26" /><path
         d="m 1078.72,2121.97 v -291.56 h 55.92 v 118.35 h 112.94 v 50.83 h -112.94 v 71.64 h 132.54 v 50.74 h -188.46"
         style="fill:#151118;fill-opacity:1;fill-rule:nonzero;stroke:none"
         id="path28" /><path
         d="m 1411.28,1994.2 h -52.56 v 77.03 h 52.56 c 24.57,0 40.68,-16.04 40.68,-38.49 0,-22.51 -16.11,-38.54 -40.68,-38.54 z m 49.9,-38.07 c 27.81,10.27 52.19,35.6 52.19,76.61 0,48.72 -34.51,89.23 -92.81,89.23 H 1308.5 v -291.56 h 55.88 v 116.29 h 40.04 l 55.98,-116.29 h 64.59 l -63.81,125.72"
         style="fill:#151118;fill-opacity:1;fill-rule:nonzero;stroke:none"
         id="path30" /><path
         d="m 1635.62,1929.9 36.22,106.06 34.89,-106.06 z m 56.67,192.07 h -43.8 l -103.93,-291.56 h 58.24 l 17.25,51.56 h 101.57 l 16.78,-51.56 h 58.31 l -104.42,291.56"
         style="fill:#151118;fill-opacity:1;fill-rule:nonzero;stroke:none"
         id="path32" /><path
         d="m 1074.64,1603.98 c 0,-50.39 -0.72,-86.85 28.22,-116.34 20.08,-20.48 45.86,-31.93 77.03,-31.93 53.05,0 95.28,31.07 105.25,92.19 h -56.59 c -5.52,-23.34 -20.07,-41.43 -48.15,-41.43 -15.31,0 -27.71,5.78 -35.79,15.16 -10.85,12.34 -14.06,26.27 -14.06,82.35 0,56.13 3.21,70.01 14.06,82.32 8.08,9.4 20.48,15.15 35.79,15.15 28.08,0 42.63,-17.99 48.15,-41.34 h 56.59 c -9.97,61.02 -51.68,92.14 -105.25,92.14 -31.17,0 -56.95,-11.5 -77.03,-31.94 -28.94,-29.48 -28.22,-65.9 -28.22,-116.33"
         style="fill:#151118;fill-opacity:1;fill-rule:nonzero;stroke:none"
         id="path34" /><path
         d="m 1439.09,1621.7 h -52.67 v 77.05 h 52.67 c 24.49,0 40.53,-15.99 40.53,-38.48 0,-22.56 -16.04,-38.57 -40.53,-38.57 z m 44.08,-37.78 c 27.8,10.24 52.25,35.57 52.25,76.6 0,48.68 -34.49,89.35 -92.73,89.35 h -112.06 v -291.78 h 55.79 v 116.31 h 40.19 l 55.8,-116.31 h 64.73 l -63.97,125.83"
         style="fill:#151118;fill-opacity:1;fill-rule:nonzero;stroke:none"
         id="path36" /><path
         d="m 1593.7,1749.87 v -291.78 h 55.68 v 291.78 h -55.68"
         style="fill:#151118;fill-opacity:1;fill-rule:nonzero;stroke:none"
         id="path38" /><path
         d="m 1698.31,1603.98 c 0,-50.39 -0.71,-86.85 28.17,-116.34 20.15,-20.48 45.79,-31.93 77.11,-31.93 53.09,0 95.18,31.07 105.36,92.19 h -56.75 c -5.68,-23.34 -19.98,-41.43 -48.23,-41.43 -15.2,0 -27.61,5.78 -35.73,15.16 -10.85,12.34 -14.01,26.27 -14.01,82.35 0,56.13 3.16,70.01 14.01,82.32 8.12,9.4 20.53,15.15 35.73,15.15 28.25,0 42.55,-17.99 48.23,-41.34 h 56.75 c -10.18,61.02 -51.82,92.14 -105.36,92.14 -31.32,0 -56.96,-11.5 -77.11,-31.94 -28.88,-29.48 -28.17,-65.9 -28.17,-116.33"
         style="fill:#151118;fill-opacity:1;fill-rule:nonzero;stroke:none"
         id="path40" /><path
         d="m 1961.42,1749.87 v -291.78 h 55.7 v 87.76 l 37.09,44.99 73.49,-132.75 h 65.19 l -101.64,175.77 94.77,116.01 h -67.92 l -100.98,-127.11 v 127.11 h -55.7"
         style="fill:#151118;fill-opacity:1;fill-rule:nonzero;stroke:none"
         id="path42" /><path
         d="m 1053.15,2461.15 h 82.82 v -262.67 h 40.55 v 262.67 h 82.72 v 37.75 h -206.09 v -37.75"
         style="fill:#151118;fill-opacity:1;fill-rule:nonzero;stroke:none"
         id="path44" /><path
         d="m 1473.27,2368.74 h -125.9 v 130.1 h -40.49 v -300.31 h 40.49 v 132.59 h 125.9 v -132.59 h 40.45 v 300.31 h -40.45 v -130.1"
         style="fill:#151118;fill-opacity:1;fill-rule:nonzero;stroke:none"
         id="path46" /><path
         d="m 1758.12,2461.21 v 37.63 h -187.33 v -300.31 h 187.33 v 37.68 h -146.94 v 94.91 h 125.27 v 37.62 h -125.27 v 92.47 h 146.94"
         style="fill:#151118;fill-opacity:1;fill-rule:nonzero;stroke:none"
         id="path48" /><path
         d="m 1118.02,1081.2 h -39.26 v 291.02 h 39.26 V 1081.2"
         style="fill:#151118;fill-opacity:1;fill-rule:nonzero;stroke:none"
         id="path50" /><path
         d="m 1390.95,1081.2 h -35.32 l -139.78,214.28 V 1081.2 h -39.22 v 291.02 h 35.47 l 139.74,-213.68 v 213.68 h 39.11 V 1081.2"
         style="fill:#151118;fill-opacity:1;fill-rule:nonzero;stroke:none"
         id="path52" /><path
         d="m 1535.83,1078.74 c -42.85,0 -71.37,11.19 -98.44,38.61 l -3.34,3.39 27.03,27.36 3.42,-3.46 c 21.17,-21.42 40.71,-29.38 72.13,-29.38 37.91,0 60.5,17.72 60.5,47.4 0,13.69 -4.11,24.92 -11.53,31.61 -7.94,6.86 -13.91,9.06 -33.73,12.2 l -32.39,5.17 c -22.75,3.73 -40.72,11.26 -53.4,22.45 -15.07,13.59 -22.69,32.51 -22.69,56.28 0,51.11 36.74,84.13 93.59,84.13 36.12,0 60.92,-9.29 85.73,-32.1 l 3.67,-3.38 -25.84,-26.12 -3.41,3.13 c -17.57,16.21 -35.34,22.82 -61.3,22.82 -33.55,0 -53.57,-17.71 -53.57,-47.37 0,-12.85 3.59,-22.56 10.7,-28.86 7.54,-6.52 20.68,-11.86 35.14,-14.25 l 30.25,-4.75 c 25.8,-3.86 40.16,-9.51 52.93,-20.86 16.38,-14.06 25.07,-34.6 25.07,-59.32 0,-51.45 -39.45,-84.7 -100.52,-84.7"
         style="fill:#151118;fill-opacity:1;fill-rule:nonzero;stroke:none"
         id="path54" /><path
         d="m 1780.17,1081.2 h -39.18 v 254.45 h -80.26 v 36.57 h 199.66 v -36.57 h -80.22 V 1081.2"
         style="fill:#151118;fill-opacity:1;fill-rule:nonzero;stroke:none"
         id="path56" /><path
         d="m 1940.58,1081.2 h -39.11 v 291.02 h 39.11 V 1081.2"
         style="fill:#151118;fill-opacity:1;fill-rule:nonzero;stroke:none"
         id="path58" /><path
         d="m 2101.24,1081.2 h -39.21 v 254.45 h -80.2 v 36.57 h 199.63 v -36.57 h -80.22 V 1081.2"
         style="fill:#151118;fill-opacity:1;fill-rule:nonzero;stroke:none"
         id="path60" /><path
         d="m 2315.51,1078.74 c -58.79,0 -101.45,42.1 -101.45,100.1 v 193.38 h 39.23 V 1181.2 c 0,-40.06 24.42,-65.94 62.22,-65.94 38,0 62.55,25.88 62.55,65.94 v 191.02 h 39.19 v -193.38 c 0,-58 -42.79,-100.1 -101.74,-100.1"
         style="fill:#151118;fill-opacity:1;fill-rule:nonzero;stroke:none"
         id="path62" /><path
         d="m 2569.83,1081.2 h -39.11 v 254.45 h -80.27 v 36.57 h 199.72 v -36.57 h -80.34 V 1081.2"
         style="fill:#151118;fill-opacity:1;fill-rule:nonzero;stroke:none"
         id="path64" /><path
         d="m 2864.46,1081.2 h -181.77 v 291.02 h 181.77 v -36.57 h -142.52 v -89.61 h 121.51 v -36.46 h -121.51 v -91.95 h 142.52 v -36.43"
         style="fill:#151118;fill-opacity:1;fill-rule:nonzero;stroke:none"
         id="path66" /></g></g></svg>
